<svg width="189" height="167" viewBox="0 0 189 167" fill="none" xmlns="http://www.w3.org/2000/svg">
<g filter="url(#filter0_d_5_115)">
<path d="M23.0452 158.705C15.3359 148.074 9.79604 136.029 6.74193 123.257C3.68784 110.484 3.17929 97.2359 5.24536 84.2672C7.31142 71.2986 11.9116 58.8639 18.7833 47.673C25.655 36.4822 34.6635 26.7545 45.2947 19.0452C55.9258 11.3359 67.9713 5.79602 80.7434 2.74193C93.5156 -0.312164 106.764 -0.820694 119.733 1.24536C132.701 3.31142 145.136 7.91162 156.327 14.7833C167.518 21.655 177.246 30.6636 184.955 41.2947L104 100L23.0452 158.705Z" fill="#33AB97"/>
</g>
<defs>
<filter id="filter0_d_5_115" x="0" y="0" width="188.955" height="166.705" filterUnits="userSpaceOnUse" color-interpolation-filters="sRGB">
<feFlood flood-opacity="0" result="BackgroundImageFix"/>
<feColorMatrix in="SourceAlpha" type="matrix" values="0 0 0 0 0 0 0 0 0 0 0 0 0 0 0 0 0 0 127 0" result="hardAlpha"/>
<feOffset dy="4"/>
<feGaussianBlur stdDeviation="2"/>
<feComposite in2="hardAlpha" operator="out"/>
<feColorMatrix type="matrix" values="0 0 0 0 0 0 0 0 0 0 0 0 0 0 0 0 0 0 0.25 0"/>
<feBlend mode="normal" in2="BackgroundImageFix" result="effect1_dropShadow_5_115"/>
<feBlend mode="normal" in="SourceGraphic" in2="effect1_dropShadow_5_115" result="shape"/>
</filter>
</defs>
</svg>
