<svg width="80" height="78" viewBox="0 0 80 78" fill="none" xmlns="http://www.w3.org/2000/svg">
<path d="M45.6125 4.89328C36.9 7.41 32.6875 15.338 35.375 24.1678L44.6437 54.6183C44.8062 55.1545 48.8062 54.0028 48.6375 53.4605L39.3687 23.01C37.6875 17.4891 39.3312 10.9444 46.7937 8.78719C51.775 7.34297 57.9875 8.72016 60.475 16.9041L72.675 56.9888C74.0812 61.6139 73.5562 67.6406 67.4375 69.4078C60.8125 71.3273 57.8625 64.1916 56.9 61.035L49.7562 37.5192C48.8375 34.4906 48.0125 29.2013 52.8812 27.7936C54.2437 27.3975 57.8625 26.3494 60.375 34.3688L64.8125 48.6342C64.9625 49.1095 68.9875 48.0492 68.8 47.452L64.3625 33.1866C62.975 28.7503 59.4875 21.645 51.7 23.8997C45.7812 25.612 43.5062 31.2731 45.7625 38.677L52.9187 62.1867C55.6187 71.0653 61.6437 75.3248 68.6375 73.3017C75.8687 71.2116 79.175 64.027 76.6812 55.8309L64.4812 15.7463C61.7437 6.77625 54.1625 2.41922 45.6125 4.89328Z" fill="#82AEC0"/>
<path d="M51.0375 28.6833C47.15 30.4444 47.925 35.2584 48.7875 38.092L55.9437 61.6017C56.9062 64.7583 59.8562 71.8941 66.4812 69.9745C67.4812 69.6881 68.325 69.2798 69.0437 68.7923C68.5625 69.03 68.0312 69.2372 67.4562 69.4078C60.8312 71.3273 57.8812 64.1916 56.9187 61.035L49.7562 37.5192C48.975 34.9538 48.2687 30.7613 51.0375 28.6833ZM43.3187 10.3472C38.0062 13.1198 36.925 18.7383 38.4 23.5767L47.6687 54.0272C47.6812 54.0638 47.6687 54.1003 47.65 54.1369C48.2562 53.8992 48.6937 53.6433 48.6375 53.4544L39.3687 23.01C37.9937 18.4823 38.8562 13.2722 43.3187 10.3472ZM76.675 55.8309L64.475 15.7463C61.7437 6.77625 54.1625 2.41922 45.6125 4.89328C43.95 5.37469 45.5062 4.96032 46 4.86282C53.9312 3.28453 60.9375 7.87922 63.5062 16.3191L75.7062 56.4037C77.7625 63.1556 75.875 69.2189 71.1 72.3145C76.5812 69.4383 78.8687 63.0216 76.675 55.8309Z" fill="#2F7889"/>
<path d="M51.6937 23.8997C50.6125 24.2105 49.65 24.6614 48.8187 25.2281C49.4062 24.9235 50.0375 24.6675 50.725 24.4725C58.5125 22.2178 62 29.3231 63.3875 33.7594L67.9 48.1285C67.9 48.1285 68.9437 47.8116 68.775 47.385L65.1625 35.6485C64.5062 33.3572 63.8312 31.657 63.8312 31.657C62.1625 27.3122 58.6375 21.8888 51.6937 23.8997Z" fill="#2F7889"/>
<path d="M45.925 9.50015C44.5438 10.1278 43.4188 10.9383 42.5313 11.8706C45.45 14.7225 45.1688 19.2684 43.75 22.8394L28.2 61.8028C25.025 69.7552 18.7188 70.6266 13.875 68.7862C6.61876 66.0319 5.53751 59.3836 7.67501 54.015L19.4875 24.4116C19.6938 23.8875 15.8125 22.4128 15.6063 22.9369L3.80001 52.5464C0.375015 61.1264 3.90002 69.3652 12.3688 72.5766C20.6813 75.7331 28.6063 71.9916 32.0875 63.2775L47.6375 24.3141C49.9313 18.5677 49.1688 13.1016 45.925 9.50015Z" fill="#94D1E0"/>
<path d="M41.7438 6.52031C41.7438 6.52031 41.3188 6.3375 41.1 6.25828C34.3 3.67453 27.9375 7.43438 24.4938 16.0692L15.375 38.9208C12.5 46.1175 14.2875 51.9431 20.0375 54.1308C27.6063 57.0009 31.6875 50.2064 33.4438 45.892L39.075 32.0288C39.3125 31.4498 35.3875 30.0727 35.2 30.5297L29.5688 44.3869C26.3938 52.1747 22.875 50.8402 21.55 50.3344C16.8188 48.5367 18.0813 43.3327 19.2563 40.3894L28.375 17.5378C29.4938 14.7408 32.5563 8.7811 37.9688 9.60985C37.975 9.60985 39.7375 7.64156 41.7438 6.52031Z" fill="#94D1E0"/>
<path d="M18.225 53.2289C18.7813 53.5702 19.3813 53.8749 20.0438 54.1247C26.25 56.4769 30.1063 52.3392 32.2625 48.3966C32.2625 48.3966 33.1 46.7574 34.0688 44.3686C35.0375 41.9799 38.9875 32.3578 39.0813 32.0288C39.1813 31.6997 38.1125 31.2305 38.1125 31.2305L32.3813 45.3253C30.625 49.6275 26.5438 56.4281 18.975 53.558C18.7125 53.4544 18.4688 53.3447 18.225 53.2289ZM38.2 9.35391C31.9625 7.25766 28.5188 13.9486 27.3125 16.9711L18.1938 39.8227C17.0375 42.7233 15.7938 47.8177 20.2875 49.6824C17.0813 47.4947 18.2063 43.0341 19.2625 40.3894L28.3813 17.5378C29.5 14.7408 32.5625 8.7811 37.975 9.60985L38.2 9.35391ZM18.4313 23.8449L6.61877 53.4483C4.58752 58.5366 5.46252 64.7644 11.725 67.7503C6.43752 64.5938 5.78127 58.7986 7.68752 54.0211L19.5 24.4177C19.575 24.2288 19.1438 23.9302 18.525 23.6316C18.5188 23.6316 18.4688 23.7474 18.4313 23.8449Z" fill="#2F7889"/>
<path d="M46.3875 10.0425C46.2562 9.86577 45.6875 9.1528 45.6875 9.1528C45.6562 9.16499 43.2687 10.0425 42.0187 11.3466C42.0187 11.3466 42.8937 12.157 43.4687 12.9736C43.4687 12.9736 43.5375 12.0108 44.5562 11.6512C46.6125 10.9261 47.3375 13.388 47.4437 13.7901C48.225 16.7517 47.975 20.1886 46.5625 23.7412L31.0125 62.7047C27.5312 71.4187 19.6062 75.1603 11.2937 72.0037C10.7687 71.8026 10.2687 71.5894 9.78748 71.3517C10.5875 71.8148 11.4437 72.2231 12.3625 72.5704C20.675 75.727 28.6 71.9855 32.0812 63.2714L47.6375 24.3141C49.8125 18.8541 49.2375 13.5098 46.3875 10.0425Z" fill="#2F7889"/>
<path d="M40.3063 40.2249L41.1875 43.2656C41.1875 43.2656 40.8125 41.8336 41.8313 40.6941C42.6375 39.7922 43.3563 39.847 43.3563 39.847C43.3563 39.847 42.5125 35.0695 42.5125 35.1183C42.5125 35.167 40.3063 40.2249 40.3063 40.2249Z" fill="#2F7889"/>
<path d="M35.8125 22.2117C35.4125 20.1155 34.575 14.5824 38.425 10.2924C38.725 9.95719 39.8938 8.70798 40.425 9.50016C40.9188 10.2375 39.8813 10.987 39.6125 11.2856C36.225 15.0638 36.8813 20.67 37.225 22.5164C37.3 22.9064 37.5313 23.6133 36.9813 23.6194C36.275 23.6316 35.9 22.6505 35.8125 22.2117Z" fill="#B9E4EA"/>
<path d="M23.575 22.4737C23.05 22.4006 23.1313 21.5597 23.2813 21.1636C23.9063 19.5487 25.3188 15.4537 26.8938 12.7542C28.3688 10.2192 29.6313 9.12842 30.6625 8.34842C31.5563 7.67202 32.1125 7.76342 32.3563 8.28749C32.5375 8.67749 31.925 9.33561 31.6063 9.56717C30.6813 10.2497 29.5875 11.2186 28.2563 13.5037C26.7563 16.0753 25.1938 19.9692 24.5813 21.5536C24.425 21.9436 24.1 22.5408 23.575 22.4737ZM19.2063 51.5836C19.4 50.633 20.775 50.9559 21.1375 51.0778C21.975 51.3703 23.6125 51.7664 25.3125 51.1692C27.1563 50.5233 28.2563 49.073 29.425 46.5319C29.5938 46.1662 30.0375 45.9956 30.425 46.148C30.8375 46.3125 31.0313 46.7817 30.8438 47.1778C29.4938 50.1089 27.7 52.1015 25.3938 52.778C22.4563 53.6494 18.8813 53.1862 19.2063 51.5836Z" fill="#D6F1F2"/>
<path d="M62.9813 72.7289C57.2063 71.7478 54.575 65.0569 53.825 62.7839C53.6938 62.3756 52.9375 60.2916 53.9875 60.1027C54.8938 59.9442 55.1938 61.9491 55.325 62.3269C56.0188 64.3622 58.4375 70.2914 63.275 71.2238C65.3125 71.6199 66.9313 70.8825 66.75 71.4919C66.425 72.5827 64.0938 72.9239 62.9813 72.7289ZM46.3563 38.2566C45.4813 34.7222 45.1563 31.328 46.8125 28.6163C47.05 28.2263 47.5875 28.141 47.9563 28.4152C48.2688 28.6528 48.35 29.0733 48.15 29.4024C46.7875 31.6388 46.7563 33.1135 47.3375 37.0317C47.5938 38.7502 47.9813 40.3955 47.4813 40.56C47.1188 40.6819 46.5813 39.1585 46.3563 38.2566Z" fill="#B9E4EA"/>
</svg>
