<svg width="32" height="32" viewBox="0 0 32 32" fill="none" xmlns="http://www.w3.org/2000/svg">
<path d="M10.495 3.00997C10.6581 3.02861 10.8159 3.07919 10.9595 3.15883C11.103 3.23847 11.2295 3.34561 11.3316 3.47413C11.4338 3.60265 11.5096 3.75003 11.5548 3.90786C11.6 4.06569 11.6136 4.23087 11.595 4.39397L11.523 5.01897C11.4852 5.34837 11.3181 5.64927 11.0584 5.85546C10.7988 6.06166 10.4679 6.15627 10.1385 6.11847C9.80908 6.08068 9.50818 5.91358 9.30199 5.65394C9.09579 5.39429 9.00118 5.06337 9.03898 4.73397L9.11098 4.10797C9.14886 3.77875 9.31593 3.47803 9.57546 3.27195C9.83498 3.06587 10.1657 2.97227 10.495 3.00997ZM15.435 5.11997C15.5222 4.67297 15.4284 4.20962 15.1741 3.83177C14.9198 3.45393 14.5259 3.19251 14.079 3.10497C13.8576 3.06214 13.63 3.06335 13.4091 3.10852C13.1882 3.1537 12.9784 3.24196 12.7917 3.36826C12.6049 3.49456 12.4449 3.65643 12.3207 3.84461C12.1965 4.03279 12.1106 4.24359 12.068 4.46497L11.903 5.30997C11.8595 5.53139 11.8601 5.75921 11.9047 5.9804C11.9494 6.20159 12.0372 6.41181 12.1631 6.59904C12.289 6.78627 12.4507 6.94685 12.6387 7.07158C12.8267 7.19631 13.0375 7.28276 13.259 7.32597C14.189 7.50597 15.089 6.89697 15.27 5.96497L15.435 5.11997Z" fill="#F8F8F8"/>
<path d="M13.66 9.91999C13.66 6.91999 11.2 6.49999 8.15999 6.49999C5.11999 6.49999 2.72999 6.87999 2.66999 9.80999V20.92C2.66844 21.6277 2.83382 22.3258 3.15271 22.9576C3.47159 23.5893 3.935 24.137 4.50528 24.5561C5.07556 24.9751 5.73664 25.2538 6.43483 25.3694C7.13302 25.485 7.84864 25.4343 8.52357 25.2215C9.19849 25.0086 9.8137 24.6395 10.3192 24.1443C10.8247 23.649 11.2063 23.0415 11.433 22.3711C11.6596 21.7006 11.7249 20.9862 11.6237 20.2858C11.5224 19.5854 11.2573 18.9187 10.85 18.34C10.5261 17.6504 10.43 16.8756 10.5756 16.1277C10.7212 15.3798 11.101 14.6977 11.66 14.18C12.2883 13.6626 12.7937 13.0119 13.1396 12.2752C13.4855 11.5384 13.6633 10.7339 13.66 9.91999ZM8.66999 4.42999C8.66999 4.13029 8.55094 3.84287 8.33902 3.63096C8.12711 3.41904 7.83969 3.29999 7.53999 3.29999C7.2403 3.29999 6.95288 3.41904 6.74096 3.63096C6.52905 3.84287 6.40999 4.13029 6.40999 4.42999V4.99999C6.40999 5.29968 6.52905 5.5871 6.74096 5.79902C6.95288 6.01093 7.2403 6.12999 7.53999 6.12999C7.83969 6.12999 8.12711 6.01093 8.33902 5.79902C8.55094 5.5871 8.66999 5.29968 8.66999 4.99999V4.42999ZM4.87199 3.85999C5.14291 3.82965 5.41478 3.90816 5.62781 4.07825C5.84085 4.24834 5.9776 4.49608 6.00799 4.76699L6.06799 5.28399C6.09953 5.55477 6.02222 5.82699 5.85307 6.04078C5.68391 6.25456 5.43677 6.3924 5.16599 6.42399C4.89524 6.45404 4.62363 6.3754 4.41082 6.20534C4.198 6.03528 4.0614 5.7877 4.03099 5.51699L3.97099 5.00099C3.93944 4.73036 4.01662 4.45828 4.18556 4.24452C4.35451 4.03076 4.6014 3.89281 4.87199 3.86099V3.85999Z" fill="#F8F8F8"/>
<path d="M2.66998 5.09198L2.66098 5.09398C2.54994 5.12096 2.4453 5.16954 2.35304 5.23696C2.26078 5.30438 2.1827 5.38931 2.12327 5.48691C2.06384 5.58451 2.02421 5.69286 2.00666 5.80577C1.98911 5.91869 1.99397 6.03395 2.02098 6.14498L2.12798 6.58198C2.15495 6.69302 2.20353 6.79766 2.27095 6.88993C2.33837 6.98219 2.42331 7.06026 2.5209 7.11969C2.6185 7.17913 2.72685 7.21875 2.83977 7.2363C2.95268 7.25385 3.06794 7.24899 3.17898 7.22198L3.18898 7.21898C3.41302 7.1645 3.60626 7.02331 3.72627 6.82643C3.84627 6.62955 3.88321 6.39308 3.82898 6.16898L3.72198 5.73098C3.695 5.61994 3.64642 5.51531 3.579 5.42304C3.51158 5.33078 3.42665 5.25271 3.32905 5.19327C3.23145 5.13384 3.1231 5.09422 3.01019 5.07667C2.89728 5.05912 2.78201 5.06398 2.67098 5.09098L2.66998 5.09198ZM21.91 11.014C21.7469 11.0326 21.5817 11.019 21.4239 10.9738C21.266 10.9286 21.1187 10.8528 20.9901 10.7507C20.8616 10.6485 20.7545 10.522 20.6748 10.3785C20.5952 10.2349 20.5446 10.0771 20.526 9.91398L20.454 9.28898C20.4161 8.95959 20.5105 8.62861 20.7166 8.36887C20.9227 8.10914 21.2236 7.94191 21.553 7.90398C21.8824 7.86606 22.2134 7.96054 22.4731 8.16664C22.7328 8.37274 22.9001 8.67359 22.938 9.00298L23.009 9.62898C23.0278 9.79209 23.0143 9.9573 22.9692 10.1152C22.9242 10.2731 22.8484 10.4205 22.7464 10.5491C22.6443 10.6778 22.5179 10.785 22.3744 10.8648C22.2309 10.9445 22.0731 10.9952 21.91 11.014ZM16.788 10.868C16.8307 11.0895 16.9166 11.3005 17.0408 11.4888C17.165 11.6772 17.3251 11.8392 17.5119 11.9657C17.6987 12.0922 17.9086 12.1806 18.1296 12.2259C18.3507 12.2713 18.5784 12.2727 18.8 12.23C19.2467 12.1422 19.6404 11.8807 19.8945 11.5029C20.1485 11.1251 20.2422 10.6618 20.155 10.215L19.991 9.37099C19.9048 8.92377 19.6445 8.52909 19.2674 8.27369C18.8903 8.01829 18.4272 7.92308 17.98 8.00898C17.7585 8.0522 17.5477 8.13865 17.3597 8.26338C17.1717 8.38811 17.01 8.54868 16.8841 8.73592C16.7582 8.92315 16.6704 9.13337 16.6257 9.35456C16.5811 9.57575 16.5805 9.80356 16.624 10.025L16.788 10.869V10.868Z" fill="#F8F8F8"/>
<path d="M18.39 14.82C18.39 11.82 20.86 11.4 23.89 11.4C26.92 11.4 29.33 11.78 29.39 14.71V25.83C29.39 27.0234 28.9159 28.168 28.0719 29.0119C27.228 29.8559 26.0834 30.33 24.89 30.33C23.6965 30.33 22.5519 29.8559 21.708 29.0119C20.8641 28.168 20.39 27.0234 20.39 25.83C20.39 24.904 20.68 24.002 21.22 23.25C21.5425 22.56 21.6378 21.7856 21.4922 21.0381C21.3467 20.2906 20.9678 19.6085 20.41 19.09C19.7772 18.573 19.2676 17.9215 18.9182 17.1829C18.5688 16.4442 18.3883 15.6371 18.39 14.82ZM23.39 9.90996C23.39 10.0584 23.4192 10.2053 23.476 10.3424C23.5328 10.4795 23.616 10.6041 23.7209 10.709C23.8259 10.8139 23.9504 10.8972 24.0875 10.9539C24.2246 11.0107 24.3716 11.04 24.52 11.04C24.6684 11.04 24.8153 11.0107 24.9524 10.9539C25.0895 10.8972 25.2141 10.8139 25.319 10.709C25.4239 10.6041 25.5072 10.4795 25.5639 10.3424C25.6207 10.2053 25.65 10.0584 25.65 9.90996V9.33996C25.65 9.04027 25.5309 8.75285 25.319 8.54093C25.1071 8.32901 24.8197 8.20996 24.52 8.20996C24.2203 8.20996 23.9329 8.32901 23.7209 8.54093C23.509 8.75285 23.39 9.04027 23.39 9.33996V9.90996ZM26.885 11.312C26.6144 11.2801 26.3675 11.1422 26.1985 10.9284C26.0296 10.7147 25.9524 10.4426 25.984 10.172L26.044 9.65496C26.108 9.08996 26.617 8.68496 27.179 8.74896C27.741 8.81296 28.145 9.32396 28.079 9.88896L28.02 10.405C28.005 10.5391 27.9638 10.6689 27.8987 10.7871C27.8336 10.9052 27.7458 11.0094 27.6404 11.0936C27.535 11.1779 27.414 11.2405 27.2844 11.278C27.1548 11.3154 27.0191 11.327 26.885 11.312ZM28.866 12.109L28.876 12.111C28.987 12.138 29.1023 12.1428 29.2152 12.1253C29.3281 12.1077 29.4364 12.0681 29.534 12.0087C29.6316 11.9492 29.7166 11.8712 29.784 11.7789C29.8514 11.6866 29.9 11.582 29.927 11.471L30.034 11.034C30.0882 10.8099 30.0513 10.5734 29.9313 10.3765C29.8113 10.1796 29.618 10.0384 29.394 9.98396L29.384 9.98096C29.1599 9.92673 28.9234 9.96367 28.7265 10.0837C28.5296 10.2037 28.3885 10.3969 28.334 10.621L28.227 11.058C28.1727 11.2821 28.2097 11.5185 28.3297 11.7154C28.4497 11.9123 28.6429 12.0535 28.867 12.108L28.866 12.109Z" fill="#F8F8F8"/>
</svg>
